<?xml version="1.0" encoding="UTF-8" standalone="no"?>
<!-- Created with Inkscape (http://www.inkscape.org/) -->

<svg
   width="20.016705mm"
   height="20.323307mm"
   viewBox="0 0 20.016705 20.323307"
   version="1.1"
   id="svg5"
   xml:space="preserve"
   inkscape:export-filename="sicl_logo.svg"
   inkscape:export-xdpi="96"
   inkscape:export-ydpi="96"
   xmlns:inkscape="http://www.inkscape.org/namespaces/inkscape"
   xmlns:sodipodi="http://sodipodi.sourceforge.net/DTD/sodipodi-0.dtd"
   xmlns="http://www.w3.org/2000/svg"
   xmlns:svg="http://www.w3.org/2000/svg"><sodipodi:namedview
     id="namedview7"
     pagecolor="#505050"
     bordercolor="#ffffff"
     borderopacity="1"
     inkscape:showpageshadow="0"
     inkscape:pageopacity="0"
     inkscape:pagecheckerboard="1"
     inkscape:deskcolor="#505050"
     inkscape:document-units="mm"
     showgrid="false"
     inkscape:zoom="23.006162"
     inkscape:cx="143.59197"
     inkscape:cy="286.0538"
     inkscape:window-width="1920"
     inkscape:window-height="1060"
     inkscape:window-x="0"
     inkscape:window-y="0"
     inkscape:window-maximized="1"
     inkscape:current-layer="layer1" /><defs
     id="defs2" /><g
     inkscape:label="Layer 1"
     inkscape:groupmode="layer"
     id="layer1"
     transform="translate(-25.012578,-62.806879)"><path
       style="fill:#dc8add;stroke:#dc8add;stroke-width:0.512837;stroke-linecap:round;stroke-linejoin:round;stroke-dasharray:none;stroke-opacity:1"
       d="m 29.138258,76.054254 4.01825,-2.693922"
       id="path1387" /><path
       style="fill:#dc8add;stroke:#dc8add;stroke-width:0.627178;stroke-linecap:round;stroke-linejoin:round;stroke-dasharray:none;stroke-opacity:1"
       d="m 34.736603,67.093806 c -0.07109,1.88343 -0.07109,1.869602 -0.07109,1.869602"
       id="path1389" /><path
       style="fill:#dc8add;stroke:#dc8add;stroke-width:0.571961;stroke-linecap:round;stroke-linejoin:round;stroke-dasharray:none;stroke-opacity:1"
       d="m 34.616821,75.73812 0.988098,3.409766 0.954165,-0.302778 z"
       id="path1391"
       sodipodi:nodetypes="cccc" /><path
       style="fill:none;stroke:#dc8add;stroke-width:0.45;stroke-linecap:round;stroke-linejoin:round;stroke-dasharray:none;stroke-opacity:1"
       d="m 37.792837,72.768213 2.947623,3.404688 0.292106,-1.673727 z"
       id="path1531"
       sodipodi:nodetypes="cccc" /><path
       id="path354"
       style="fill:#c061cb;stroke:#c061cb;stroke-width:1.71847;stroke-linecap:round;stroke-linejoin:round;stroke-miterlimit:6;paint-order:stroke fill markers"
       d="m 37.589059,72.59771 a 2.8872347,2.8872347 0 0 1 -2.887235,2.887234 2.8872347,2.8872347 0 0 1 -2.887234,-2.887234 2.8872347,2.8872347 0 0 1 2.887234,-2.887235 2.8872347,2.8872347 0 0 1 2.887235,2.887235 z" /><path
       id="circle1639"
       style="fill:none;fill-opacity:0.964706;stroke:#dc8add;stroke-width:0.619934;stroke-linecap:round;stroke-linejoin:round;stroke-miterlimit:6;paint-order:stroke fill markers"
       d="m 29.274866,76.797127 a 1.9761596,1.9761596 0 0 1 -1.97616,1.976159 1.9761596,1.9761596 0 0 1 -1.97616,-1.976159 1.9761596,1.9761596 0 0 1 1.97616,-1.97616 1.9761596,1.9761596 0 0 1 1.97616,1.97616 z" /><path
       id="circle1645"
       style="fill:none;fill-opacity:0.964706;stroke:#dc8add;stroke-width:0.619934;stroke-linecap:round;stroke-linejoin:round;stroke-miterlimit:6;paint-order:stroke fill markers"
       d="m 36.803804,65.093002 a 1.9761596,1.9761596 0 0 1 -1.97616,1.97616 1.9761596,1.9761596 0 0 1 -1.976159,-1.97616 1.9761596,1.9761596 0 0 1 1.976159,-1.976159 1.9761596,1.9761596 0 0 1 1.97616,1.976159 z" /><path
       id="circle1647"
       style="fill:none;fill-opacity:0.964706;stroke:#dc8add;stroke-width:0.619934;stroke-linecap:round;stroke-linejoin:round;stroke-miterlimit:6;paint-order:stroke fill markers"
       d="m 38.881536,80.844055 a 1.9761596,1.9761596 0 0 1 -1.97616,1.97616 1.9761596,1.9761596 0 0 1 -1.976159,-1.97616 1.9761596,1.9761596 0 0 1 1.976159,-1.976159 1.9761596,1.9761596 0 0 1 1.97616,1.976159 z" /><path
       id="circle1745"
       style="fill:none;fill-opacity:0.964706;stroke:#dc8add;stroke-width:0.619934;stroke-linecap:round;stroke-linejoin:round;stroke-miterlimit:6;paint-order:stroke fill markers"
       d="m 44.719316,75.609517 a 1.9761596,1.9761596 0 0 1 -1.976159,1.976159 1.9761596,1.9761596 0 0 1 -1.97616,-1.976159 1.9761596,1.9761596 0 0 1 1.97616,-1.97616 1.9761596,1.9761596 0 0 1 1.976159,1.97616 z" /></g></svg>
